HIERARCHY
ROOT RootJoint
{
    OFFSET   0.000000   0.000000   0.000000
    CHANNELS 6 Xposition Yposition Zposition Xrotation Yrotation Zrotation
    JOINT lHip
    {
        OFFSET   0.100000  -0.051395   0.000000
        CHANNELS 3 Xrotation Yrotation Zrotation
        JOINT lKnee
        {
            OFFSET   0.000000  -0.410000   0.000000
            CHANNELS 3 Xrotation Yrotation Zrotation
            JOINT lAnkle
            {
                OFFSET   0.000000  -0.390000   0.000000
                CHANNELS 3 Xrotation Yrotation Zrotation
                JOINT lToeJoint
                {
                    OFFSET   0.000000  -0.050000   0.130000
                    CHANNELS 3 Xrotation Yrotation Zrotation
                    End Site
                    {
                        OFFSET   0.010000   0.002000   0.060000
                    }
                }
            }
        }
    }
    JOINT rHip
    {
        OFFSET  -0.100000  -0.051395   0.000000
        CHANNELS 3 Xrotation Yrotation Zrotation
        JOINT rKnee
        {
            OFFSET   0.000000  -0.410000   0.000000
            CHANNELS 3 Xrotation Yrotation Zrotation
            JOINT rAnkle
            {
                OFFSET   0.000000  -0.390000   0.000000
                CHANNELS 3 Xrotation Yrotation Zrotation
                JOINT rToeJoint
                {
                    OFFSET   0.000000  -0.050000   0.130000
                    CHANNELS 3 Xrotation Yrotation Zrotation
                    End Site
                    {
                        OFFSET  -0.010000   0.002000   0.060000
                    }
                }
            }
        }
    }
    JOINT pelvis_lowerback
    {
        OFFSET   0.000000   0.093605   0.000000
        CHANNELS 3 Xrotation Yrotation Zrotation
        JOINT lowerback_torso
        {
            OFFSET   0.000000   0.100000   0.000000
            CHANNELS 3 Xrotation Yrotation Zrotation
            JOINT torso_head
            {
                OFFSET   0.000000   0.282350   0.000000
                CHANNELS 3 Xrotation Yrotation Zrotation
                End Site
                {
                    OFFSET   0.000000   0.192650   0.000000
                }
            }
            JOINT lTorso_Clavicle
            {
                OFFSET   0.001000   0.157500   0.000000
                CHANNELS 3 Xrotation Yrotation Zrotation
                JOINT lShoulder
                {
                    OFFSET   0.117647   0.000000   0.000000
                    CHANNELS 3 Xrotation Yrotation Zrotation
                    JOINT lElbow
                    {
                        OFFSET   0.245000   0.000000   0.000000
                        CHANNELS 3 Xrotation Yrotation Zrotation
                        JOINT lWrist
                        {
                            OFFSET   0.240000   0.000000   0.000000
                            CHANNELS 3 Xrotation Yrotation Zrotation
                            End Site
                            {
                                OFFSET   0.116353  -0.002500   0.000000
                            }
                        }
                    }
                }
            }
            JOINT rTorso_Clavicle
            {
                OFFSET  -0.001000   0.157500   0.000000
                CHANNELS 3 Xrotation Yrotation Zrotation
                JOINT rShoulder
                {
                    OFFSET  -0.117647   0.000000   0.000000
                    CHANNELS 3 Xrotation Yrotation Zrotation
                    JOINT rElbow
                    {
                        OFFSET  -0.245000   0.000000   0.000000
                        CHANNELS 3 Xrotation Yrotation Zrotation
                        JOINT rWrist
                        {
                            OFFSET  -0.240000   0.000000   0.000000
                            CHANNELS 3 Xrotation Yrotation Zrotation
                            End Site
                            {
                                OFFSET  -0.116353  -0.002500   0.000000
                            }
                        }
                    }
                }
            }
        }
    }
}
MOTION
Frames: 6
Frame Time:   0.008333
    1.688251    1.053049   -0.285452   33.126825 -178.211774 -162.834923  -75.568764  -99.573192  141.682641   48.765600    0.000000    0.000000   14.522255   -1.075981   -0.809938   -6.957300    0.000000    0.000000  -10.271709   -5.696898  -12.934996   53.702700    0.000000    0.000000   41.086205   39.972729   41.662971   -8.833700    0.000000    0.000000    4.523346    1.115274   -1.702433  -14.012350   -7.203950  -20.480897  -30.416019  -14.606291    4.045829  -10.103882   -5.533174   25.640439  -21.434776  -74.346218   31.848771    0.000000  -12.542900    0.000000   22.409622   -4.197059   73.741324  -28.093967   22.814490  -32.232814  -29.849563   47.432896    2.957141    0.000000    8.557200    0.000000    9.190106   13.328985  -76.489400
    1.670652    1.051923   -0.279974   32.611516 -178.701211 -165.188445  -76.291551  -96.922026  139.861531   48.511700    0.000000    0.000000   13.935308   -0.015043    0.438277   -7.020100    0.000000    0.000000  -11.258627   -6.885223  -12.686085   52.847500    0.000000    0.000000   39.892180   39.839447   41.871200   -8.317150    0.000000    0.000000    4.278293    1.114606   -1.511639  -14.155873   -7.366784  -19.700484  -29.990925  -15.132406    4.368579   -9.960985   -5.659891   25.685335  -20.984924  -74.517077   31.821848    0.000000  -12.869500    0.000000   22.535916   -4.456621   74.061100  -28.105355   21.489887  -31.380717  -29.853470   47.854795    3.481668    0.000000    8.527100    0.000000    9.778810   12.866069  -80.054489
    1.653409    1.050609   -0.274461   32.045445 -179.075408 -167.471089  -76.845576  -93.720774  137.565144   48.439100    0.000000    0.000000   13.278943    0.895751    1.856963   -7.030400    0.000000    0.000000  -12.277500   -8.015382  -12.379161   51.633700    0.000000    0.000000   38.505128   40.165077   42.675190   -7.860500    0.000000    0.000000    4.111559    1.160688   -1.343469  -14.456513   -7.479201  -18.893048  -29.403617  -15.790194    4.947918   -9.631825   -5.773153   25.740433  -20.641189  -74.781460   31.943812    0.000000  -13.175200    0.000000   22.746738   -4.446882   74.240134  -27.767794   19.711678  -29.731626  -30.107645   48.588523    3.240395    0.000000    9.278700    0.000000   10.396888   12.215276  -82.573681
    1.636519    1.049195   -0.268893   31.491139 -179.387018 -169.706190  -77.114663  -89.314988  134.050695   48.533900    0.000000    0.000000   12.680765    1.452332    2.978679   -7.009850    0.000000    0.000000  -13.360542   -9.189478  -11.982414   50.182900    0.000000    0.000000   37.597610   40.530531   43.432684   -8.102700    0.000000    0.000000    3.970909    1.145350   -1.198774  -14.856863   -7.670702  -18.018543  -28.553444  -16.276443    5.413835   -9.366289   -6.020049   25.818661  -20.150939  -74.681558   31.853727   -0.000097  -13.500300    0.000023   22.896834   -4.417696   74.600798  -25.928859   17.010393  -27.061665  -31.701740   50.311500    1.104554    0.000000   10.644800    0.000000   11.227177   11.049437  -83.549455
    1.620129    1.047816   -0.263302   30.973381 -179.567998 -171.834372  -77.354760  -84.681281  130.349751   48.732000    0.000000    0.000000   12.154191    2.072270    4.326584   -6.929500    0.000000    0.000000  -14.421146  -10.289470  -11.555089   48.411600    0.000000    0.000000   37.095900   41.121190   44.415174   -8.153650    0.000000    0.000000    3.882699    1.090002   -1.111383  -15.322354   -7.945557  -17.010485  -27.502149  -16.696244    5.892509   -9.086718   -6.189473   25.876323  -19.756580  -74.531915   31.727151   -0.000097  -13.806800    0.000024   23.103074   -4.507456   74.820043  -23.662906   14.539238  -24.559659  -33.412383   52.099979   -1.253565    0.000000   12.271400    0.000000   12.034753   10.003449  -83.806626
    1.602417    1.046271   -0.256028   30.702063 -179.662376 -172.501017  -78.351880  -72.587721  118.942073   48.325900    0.000000    0.000000   12.014076    2.601316    4.637225   -6.699150    0.000000    0.000000  -15.660599  -10.642213  -12.372148   46.730300    0.000000    0.000000   36.629813   40.926547   45.398570   -8.057450    0.000000    0.000000    3.968778    0.731153   -2.007492  -15.625721   -8.275889  -17.119886  -26.404187  -17.306371    7.279820   -9.376558   -6.573712   26.645902  -19.059423  -73.871562   31.083119   -0.000097  -14.230700    0.000025   23.319637   -4.318026   74.746532  -23.188619   13.116009  -22.550321  -34.601552   52.326648   -1.074631   -0.000097   14.218500   -0.000025   12.643512    8.078354  -84.227936
